<?xml version="1.0" standalone="no"?>
<!DOCTYPE svg PUBLIC "-//W3C//DTD SVG 20010904//EN"
 "http://www.w3.org/TR/2001/REC-SVG-20010904/DTD/svg10.dtd">
<svg version="1.0" xmlns="http://www.w3.org/2000/svg"
 width="260.000000pt" height="260.000000pt" viewBox="0 0 260.000000 260.000000"
 preserveAspectRatio="xMidYMid meet">
<metadata>
Created by potrace 1.14, written by Peter Selinger 2001-2017
</metadata>
<g transform="translate(0.000000,260.000000) scale(0.100000,-0.100000)"
fill="#000000" stroke="none">
<path d="M45 1847 c-2 -7 -3 -257 -2 -556 2 -619 -8 -562 93 -535 170 44 245
137 250 313 2 52 8 97 13 100 7 5 498 6 596 2 18 -1 20 -8 21 -96 1 -85 5
-102 33 -158 34 -68 90 -118 170 -151 43 -18 84 -19 694 -21 l647 -1 0 150 c0
83 1 331 2 551 l1 400 -27 3 c-14 2 -51 -4 -82 -13 -112 -32 -195 -106 -221
-195 -13 -45 -16 -110 -16 -352 l0 -298 -129 0 -129 0 1 378 c1 207 1 387 1
400 -1 21 -5 22 -43 18 -154 -19 -270 -112 -294 -236 -3 -19 -6 -153 -7 -297
l0 -263 -129 0 c-70 0 -128 3 -129 8 0 4 -1 198 -2 432 -2 418 -2 425 -22 423
-105 -10 -165 -34 -228 -92 -66 -61 -89 -123 -91 -243 l-1 -98 -312 0 -313 0
-1 38 c-1 76 -6 148 -14 177 -11 42 -52 105 -92 139 -62 53 -228 104 -238 73z"/>
</g>
</svg>
